<svg width="1024" height="1024" viewBox="0 0 1024 1024" fill="none" xmlns="http://www.w3.org/2000/svg">
<path d="M267.415 231.65C421.75 122.317 642.19 131.253 784.888 252.804C930.04 376.53 949.871 578.549 830.488 723.271C718.031 859.571 515.206 904.491 346.344 834.185L337.121 830.192L163.983 867.005L162.4 867.242L161.015 867.519H160.302L159.431 867.717H157.927L156.621 867.875L155.79 867.835L154.879 867.875L153.573 867.756H152.188L151.317 867.598L150.446 867.519L149.06 867.242L147.715 867.045L147.081 866.886L146.131 866.689L144.192 866.056L143.242 865.858L142.806 865.661L141.935 865.384L140.154 864.593L138.967 864.118L138.531 863.881L137.977 863.644L136.75 862.932L134.969 861.983L134.335 861.548L132.871 860.52L131.288 859.453L131.208 859.294L130.694 858.939L128.992 857.357L128.002 856.566L127.765 856.289L125.548 853.838L125.033 853.284L124.598 852.73L123.054 850.516L122.5 849.765L122.302 849.369L120.64 846.483L120.363 846.008L120.204 845.692L119.927 845.218L119.373 843.715L118.581 842.054L118.423 841.422L118.265 841.026L117.592 838.614L117.315 837.902L117.235 837.309L117.038 836.558L116.84 835.253L116.523 833.592L116.444 832.366L116.325 831.971V831.338L116.167 829.203L116.206 827.78L116.246 826.87L116.325 824.774L116.483 823.786V823.035L116.8 821.651L116.998 820.306L117.196 819.515L117.354 818.725L118.067 816.352L118.185 815.838L163.706 679.419L162.835 677.956C75.3563 529.794 114.979 346.162 258.35 238.293L267.415 231.65Z" fill="black" style="fill:black;fill-opacity:1;"/>
</svg>
