<svg width="1024" height="1024" viewBox="0 0 1024 1024" fill="none" xmlns="http://www.w3.org/2000/svg">
<path d="M289.333 484.167C296.427 484.175 303.251 486.891 308.409 491.761C313.568 496.631 316.672 503.287 317.088 510.369C317.504 517.451 315.2 524.424 310.646 529.864C306.093 535.304 299.634 538.801 292.59 539.638L289.333 539.833H261.5C254.406 539.825 247.582 537.109 242.424 532.239C237.265 527.369 234.161 520.713 233.745 513.631C233.33 506.549 235.634 499.576 240.187 494.136C244.74 488.696 251.199 485.199 258.244 484.361L261.5 484.167H289.333ZM512 233.667C518.817 233.668 525.397 236.17 530.492 240.701C535.586 245.231 538.841 251.473 539.639 258.243L539.833 261.5V289.333C539.825 296.427 537.109 303.251 532.239 308.409C527.369 313.568 520.713 316.672 513.631 317.088C506.549 317.504 499.576 315.2 494.136 310.646C488.696 306.093 485.199 299.634 484.362 292.59L484.167 289.333V261.5C484.167 254.118 487.099 247.039 492.319 241.819C497.539 236.599 504.618 233.667 512 233.667ZM762.5 484.167C769.594 484.175 776.418 486.891 781.576 491.761C786.735 496.631 789.839 503.287 790.255 510.369C790.67 517.451 788.366 524.424 783.813 529.864C779.26 535.304 772.801 538.801 765.757 539.638L762.5 539.833H734.667C727.573 539.825 720.749 537.109 715.591 532.239C710.432 527.369 707.328 520.713 706.912 513.631C706.496 506.549 708.8 499.576 713.354 494.136C717.907 488.696 724.366 485.199 731.41 484.361L734.667 484.167H762.5ZM314.189 314.188C318.981 309.396 325.358 306.517 332.122 306.092C338.886 305.667 345.573 307.724 350.929 311.878L353.545 314.188L373.028 333.672C378.02 338.681 380.918 345.402 381.134 352.47C381.35 359.538 378.867 366.424 374.19 371.728C369.513 377.032 362.993 380.357 355.953 381.027C348.913 381.698 341.882 379.664 336.288 375.338L333.672 373.028L314.189 353.545C308.971 348.325 306.039 341.247 306.039 333.867C306.039 326.486 308.971 319.408 314.189 314.188ZM670.455 314.188C675.464 309.197 682.185 306.298 689.253 306.083C696.322 305.867 703.207 308.349 708.511 313.026C713.815 317.703 717.14 324.224 717.811 331.264C718.481 338.303 716.447 345.334 712.122 350.928L709.812 353.545L690.328 373.028C685.319 378.02 678.598 380.918 671.53 381.134C664.462 381.35 657.576 378.867 652.272 374.19C646.968 369.513 643.643 362.993 642.973 355.953C642.302 348.913 644.336 341.882 648.662 336.288L650.972 333.672L670.455 314.188ZM567.667 679C575.049 679 582.128 681.932 587.348 687.152C592.568 692.372 595.5 699.451 595.5 706.833C595.5 728.979 586.703 750.217 571.043 765.877C555.384 781.536 534.146 790.333 512 790.333C489.854 790.333 468.616 781.536 452.957 765.877C437.297 750.217 428.5 728.979 428.5 706.833C428.501 700.016 431.004 693.436 435.534 688.342C440.064 683.247 446.306 679.992 453.077 679.195L456.333 679H567.667ZM512 345C547.05 345 581.212 356.028 609.647 376.523C638.081 397.017 659.346 425.938 670.43 459.19C681.514 492.442 681.855 528.338 671.404 561.794C660.953 595.25 640.24 624.57 612.2 645.6C608.364 648.481 603.848 650.322 599.09 650.944L595.5 651.167H428.5C422.478 651.167 416.618 649.213 411.8 645.6C383.76 624.57 363.047 595.25 352.596 561.794C342.145 528.338 342.486 492.442 353.57 459.19C364.654 425.938 385.919 397.017 414.353 376.523C442.788 356.028 476.95 345 512 345Z" fill="#C45555" style="fill:#C45555;fill:color(display-p3 0.7694 0.3317 0.3317);fill-opacity:1;"/>
</svg>
